PathFileType	4	(X/Y/Z)	./resultDataOpenSim/trcMotMarkerGrf/sub09/qtm-04-09.trc
DataRate	CameraRate	NumFrames	NumMarkers	Units	OrigDataRate	OrigDataStartFrame	OrigNumFrames
250.000000	250.000000	10	24	m	250.000000	1	508
Frame#	Time	L.Toe.Tip			R.Toe.Tip			L.Ankle.Lat			R.Ankle.Lat			L.Ankle.Med			R.Ankle.Med			L.Heel			R.Heel			L.Knee.Lat			R.Knee.Lat			L.Knee.Med			R.Knee.Med			L.Thigh.Upper			R.Thigh.Upper			L.ASIS			R.ASIS			V.Sacral			L.Acromium			R.Acromium			C7			L.Elbow			R.Elbow			L.Wrist.Lat			R.Wrist.Lat
		X1	Y1	Z1	X2	Y2	Z2	X3	Y3	Z3	X4	Y4	Z4	X5	Y5	Z5	X6	Y6	Z6	X7	Y7	Z7	X8	Y8	Z8	X9	Y9	Z9	X10	Y10	Z10	X11	Y11	Z11	X12	Y12	Z12	X13	Y13	Z13	X14	Y14	Z14	X15	Y15	Z15	X16	Y16	Z16	X17	Y17	Z17	X18	Y18	Z18	X19	Y19	Z19	X20	Y20	Z20	X21	Y21	Z21	X22	Y22	Z22	X23	Y23	Z23	X24	Y24	Z24

1	0	-1.481136	0.036589555	0.00083697047	-0.92786353	0.087360282	0.1319175	-1.6325721	0.082414781	-0.024068656	-1.0793345	0.069816988	0.15291136	-1.6004446	0.097075059	0.067653253	-1.0684676	0.11014593	0.062910399	NaN	NaN	NaN	-1.1296967	0.032231195	0.094459853	-1.4878446	0.4731311	-0.095145929	-1.1482658	0.5244914	0.19406919	-1.4821782	0.4744838	0.031728252	-1.1414755	0.50536457	0.068363979	-1.373478	0.87842384	-0.14659747	-1.3473183	0.87793337	0.22342347	-1.2679822	0.95073296	-0.092798625	-1.2636628	0.95866355	0.14743471	-1.4288149	1.0200637	0.037135228	-1.2275024	1.4064372	-0.12606866	-1.2735535	1.418073	0.19860704	-1.3119216	1.4658361	0.033656225	-1.3029747	1.035951	-0.19539439	-1.4563799	1.1042137	0.25970179	-1.0456087	0.94217096	-0.18306932	-1.3832387	0.845427	0.29449871
2	0.004	-1.4811034	0.036553937	0.00076521299	-0.91063845	0.091249334	0.13112614	-1.6322936	0.083021315	-0.024152217	-1.0623856	0.069883202	0.1521615	-1.5998467	0.097769634	0.067332108	-1.0518905	0.110783	0.062467577	NaN	NaN	NaN	-1.1113764	0.031331261	0.09349352	-1.4849906	0.4728966	-0.095320933	-1.1432878	0.52262508	0.19395173	-1.4797943	0.47428083	0.031660465	-1.1348376	0.50389251	0.068252714	-1.3681409	0.87721824	-0.14642929	-1.3415958	0.87618121	0.223579	-1.2622017	0.94933854	-0.09275428	-1.2573589	0.95713245	0.14759103	-1.422787	1.0185362	0.037319421	-1.2218916	1.4051713	-0.12588153	-1.2678734	1.4166354	0.19878953	-1.3062828	1.464508	0.033866322	-1.2959079	1.0342368	-0.19510518	-1.4510127	1.1028729	0.25936432	-1.0377265	0.94275921	-0.18274268	-1.3792329	0.84398398	0.29499793
3	0.008	-1.4810639	0.03651821	0.00070101646	-0.89385607	0.095256456	0.13067738	-1.6319661	0.083650361	-0.024286623	-1.0456196	0.070068296	0.1514689	-1.5993317	0.098416946	0.067043291	-1.0355571	0.11151644	0.062020938	NaN	NaN	NaN	-1.0931908	0.030459023	0.092684922	-1.4820683	0.47267535	-0.095497122	-1.13811	0.52073967	0.19384071	-1.4772092	0.47406011	0.031582892	-1.128231	0.50239425	0.068093944	-1.3627962	0.87602163	-0.14624721	-1.335733	0.87444301	0.22375545	-1.2564303	0.94792419	-0.092723763	-1.2510516	0.95560527	0.14772551	-1.4167438	1.0170021	0.03752012	-1.2162745	1.4039061	-0.12568615	-1.2622431	1.415186	0.19899272	-1.3006266	1.4631681	0.034075968	-1.288835	1.0325341	-0.19479551	-1.4456991	1.1015507	0.25896319	-1.0298712	0.94330808	-0.18240188	-1.3751597	0.84254094	0.2955039
4	0.012	-1.4810161	0.036482034	0.00064613424	-0.87770956	0.099415571	0.1306075	-1.6315791	0.084323376	-0.024488648	-1.0291646	0.07043018	0.15084135	-1.598877	0.099010727	0.066783348	-1.019597	0.11238732	0.061569821	NaN	NaN	NaN	-1.0752381	0.02966294	0.092123405	-1.4790192	0.47245195	-0.095682896	-1.1326585	0.51883836	0.19369925	-1.4743119	0.47380428	0.031485669	-1.1216809	0.50085939	0.067851935	-1.3574325	0.87482924	-0.14601157	-1.3296875	0.87270248	0.22395464	-1.2506569	0.94648268	-0.092717027	-1.2447019	0.9540728	0.14782247	-1.4106739	1.0154543	0.037743111	-1.2106344	1.4026317	-0.12547575	-1.2566259	1.4137163	0.19921838	-1.2949335	1.4618092	0.034285972	-1.2817618	1.0308466	-0.19450573	-1.4403502	1.1001895	0.25844282	-1.0220484	0.94378575	-0.18206185	-1.3709078	0.84109321	0.29602064
5	0.016	-1.4809619	0.036447062	0.00059530778	-0.86220354	0.10367255	0.13073715	-1.6311478	0.085045819	-0.024751651	-1.013094	0.070970796	0.15026019	-1.5984009	0.099582728	0.066521904	-1.0040718	0.11337893	0.06112143	NaN	NaN	NaN	-1.0576636	0.029034614	0.091752427	-1.4757846	0.47220006	-0.095883279	-1.1269901	0.51692667	0.19348246	-1.4710861	0.47350975	0.031360177	-1.1151951	0.49930946	0.067516259	-1.3520489	0.87363403	-0.14568357	-1.3234895	0.87094027	0.22416465	-1.244866	0.94501987	-0.092734217	-1.238305	0.95252629	0.14787794	-1.4045797	1.0139003	0.0379989	-1.204953	1.4013384	-0.12524713	-1.2509687	1.4122249	0.19945422	-1.2891983	1.4604316	0.034502623	-1.2747047	1.0291782	-0.1942615	-1.4348455	1.0987305	0.25783977	-1.0142752	0.94418631	-0.18174145	-1.3664301	0.83963967	0.29654338
6	0.02	-1.4809026	0.036416333	0.00054006149	-0.84727458	0.10794536	0.1309138	-1.630678	0.085805938	-0.025071189	-0.99734674	0.071710045	0.14973416	-1.5978641	0.10017115	0.066231029	-0.98900654	0.11445183	0.060680605	NaN	NaN	NaN	-1.0406246	0.028654686	0.09141833	-1.4723005	0.47190333	-0.096087371	-1.1211505	0.51500695	0.19319917	-1.4675996	0.47318423	0.031211995	-1.1087286	0.49778272	0.067113444	-1.346638	0.872438	-0.14528228	-1.3171518	0.86915374	0.22437673	-1.23904	0.94355064	-0.092763048	-1.2318815	0.95096661	0.14790348	-1.3984587	1.0123598	0.038308805	-1.1992051	1.400026	-0.12499762	-1.2452472	1.4107133	0.19969033	-1.283418	1.459041	0.034737578	-1.2676558	1.0275258	-0.19400594	-1.42919	1.0972076	0.25728857	-1.0065752	0.94451857	-0.1814461	-1.3617758	0.83818666	0.29706085
7	0.024	-1.4808388	0.036389399	0.00047714048	-0.83287294	0.11214635	0.13108585	-1.6301615	0.086598925	-0.025444644	-0.98168982	0.072747566	0.14932481	-1.5972811	0.10080176	0.065900019	-0.97438963	0.11557676	0.060245387	NaN	NaN	NaN	-1.0242234	0.028520539	0.091015039	-1.4685457	0.47156151	-0.096279263	-1.1151182	0.51310901	0.19290565	-1.4639624	0.47283278	0.031062358	-1.1022171	0.4963053	0.066692441	-1.3411845	0.87125342	-0.14487965	-1.3106728	0.86735045	0.22458734	-1.2331735	0.94209464	-0.092794811	-1.2254396	0.94940338	0.14791952	-1.3923064	1.0108454	0.038682664	-1.1933878	1.3987039	-0.12473317	-1.2394487	1.4091851	0.19992336	-1.2775912	1.4576468	0.034997589	-1.260599	1.0258839	-0.19366966	-1.4234732	1.0956994	0.25688647	-0.99896178	0.94477792	-0.18117714	-1.3570311	0.83673375	0.2975611
8	0.028	-1.4807705	0.036362797	0.00041030361	-0.81897858	0.11618108	0.13125174	-1.6295913	0.087445993	-0.025863366	-0.96590965	0.074177595	0.14908654	-1.5966621	0.10148974	0.065532191	-0.96016371	0.11674941	0.059812549	NaN	NaN	NaN	-1.0085053	0.028566075	0.090511267	-1.4645538	0.47118937	-0.096467662	-1.1088765	0.51128554	0.19264311	-1.4601968	0.47246128	0.030919012	-1.0956486	0.49487783	0.066283196	-1.335673	0.87009109	-0.14452329	-1.3040586	0.86553954	0.22479473	-1.2272747	0.94066208	-0.092839045	-1.2189799	0.94784763	0.14793927	-1.3861226	1.0093458	0.039107873	-1.1875324	1.3973828	-0.12447758	-1.2335615	1.4076462	0.20015314	-1.2717202	1.4562534	0.035277349	-1.2535375	1.0242597	-0.19326348	-1.4177436	1.0942409	0.25662383	-0.99140915	0.94495076	-0.18092353	-1.3522836	0.83526027	0.29803478
9	0.032	-1.4806957	0.036336331	0.0003413881	-0.80558832	0.11995437	0.13139587	-1.6289718	0.088369726	-0.026314779	-0.95023243	0.075863562	0.14894047	-1.5959869	0.10223891	0.065133786	-0.9463299	0.11795865	0.059364059	NaN	NaN	NaN	-0.99349476	0.028727112	0.089877297	-1.4603748	0.47079226	-0.096671878	-1.1024351	0.50958671	0.19241621	-1.4562094	0.47208095	0.03075952	-1.0890738	0.49348936	0.065880262	-1.3300925	0.86895326	-0.14420127	-1.2973113	0.86372987	0.22500157	-1.2213505	0.93925645	-0.092908991	-1.2124897	0.94630702	0.14796009	-1.3799092	1.0078316	0.039561808	-1.1816684	1.396069	-0.12425309	-1.2275891	1.4061069	0.20038496	-1.2658107	1.4548579	0.035566582	-1.24649	1.0226626	-0.19285422	-1.4119954	1.0928231	0.25644984	-0.98384282	0.9450355	-0.18065948	-1.3475886	0.83375207	0.29847732
10	0.036	-1.480611	0.036313197	0.00026664082	-0.79271728	0.12338931	0.13145336	-1.6283123	0.0893594	-0.026788217	-0.93533821	0.077423034	0.14868325	-1.5952457	0.10303893	0.064704566	-0.93305545	0.11914424	0.058856922	NaN	NaN	NaN	-0.9791709	0.028979956	0.089071285	-1.4560507	0.4703467	-0.09687385	-1.0957909	0.5080421	0.19222447	-1.4519426	0.47169132	0.030563484	-1.0825353	0.49214436	0.065469678	-1.324436	0.86783773	-0.1438804	-1.2904282	0.86193112	0.22521347	-1.2153949	0.93788883	-0.093001116	-1.2059416	0.94478658	0.14797306	-1.3736667	1.0062814	0.04002912	-1.1757985	1.394763	-0.12405645	-1.2215646	1.4045797	0.20062806	-1.2598683	1.4534615	0.035864375	-1.2394667	1.0210879	-0.19247076	-1.4062101	1.0914279	0.25633093	-0.97621853	0.94504295	-0.18037498	-1.3428874	0.83223545	0.29889484
